<?xml version="1.0" standalone="no"?><!DOCTYPE svg PUBLIC "-//W3C//DTD SVG 1.1//EN" "http://www.w3.org/Graphics/SVG/1.1/DTD/svg11.dtd"><svg t="1782457561487" class="icon" viewBox="0 0 1024 1024" version="1.1" xmlns="http://www.w3.org/2000/svg" p-id="3197" xmlns:xlink="http://www.w3.org/1999/xlink" width="128" height="128"><path d="M514.787556 959.374222c-5.688889 0-11.377778 0-17.066667-5.688889l-347.022222-204.8c-11.377778-5.688889-17.066667-17.066667-17.066667-28.444444v-415.288889c0-11.377778 5.688889-22.755556 17.066667-28.444444l347.022222-204.8c11.377778-5.688889 22.755556-5.688889 34.133333 0l347.022222 204.8c11.377778 5.688889 17.066667 17.066667 17.066667 28.444444v409.6c0 11.377778-5.688889 22.755556-17.066667 28.444444l-347.022222 210.488889c-5.688889 5.688889-11.377778 5.688889-17.066666 5.688889z m-318.577778-261.688889l312.888889 187.733334 312.888889-187.733334v-369.777777l-312.888889-187.733334-312.888889 187.733334v369.777777z" fill="currentColor" p-id="3198"></path><path d="M509.098667 549.774222c-5.688889 0-11.377778 0-17.066667-5.688889l-164.977778-102.4c-17.066667-11.377778-22.755556-34.133333-11.377778-51.2s34.133333-22.755556 51.2-11.377777l147.911112 91.022222 147.911111-91.022222c17.066667-11.377778 39.822222-5.688889 51.2 11.377777 11.377778 17.066667 5.688889 39.822222-11.377778 51.2l-164.977778 102.4c-11.377778 0-17.066667 5.688889-28.444444 5.688889z" fill="currentColor" p-id="3199"></path><path d="M514.787556 731.818667c-17.066667 0-34.133333-17.066667-34.133334-34.133334v-187.733333c0-17.066667 17.066667-34.133333 34.133334-34.133333s34.133333 17.066667 34.133333 34.133333v187.733333c0 17.066667-17.066667 34.133333-34.133333 34.133334z" fill="currentColor" p-id="3200"></path></svg>