<?xml version="1.0" standalone="no"?><!DOCTYPE svg PUBLIC "-//W3C//DTD SVG 1.1//EN" "http://www.w3.org/Graphics/SVG/1.1/DTD/svg11.dtd"><svg t="1782457582856" class="icon" viewBox="0 0 1024 1024" version="1.1" xmlns="http://www.w3.org/2000/svg" p-id="3528" xmlns:xlink="http://www.w3.org/1999/xlink" width="128" height="128"><path d="M591.644444 546.816H494.933333c-17.066667 0-34.133333-17.066667-34.133333-34.133333v-96.711111c0-11.377778 5.688889-17.066667 11.377778-22.755556l284.444444-284.444444c11.377778-11.377778 34.133333-11.377778 51.2 0l96.711111 96.711111c11.377778 11.377778 11.377778 34.133333 0 51.2l-284.444444 284.444444c-11.377778 0-22.755556 5.688889-28.444445 5.688889z m-62.577777-68.266667h45.511111l250.311111-250.311111-45.511111-45.511111-250.311111 250.311111v45.511111z" fill="currentColor" p-id="3529"></path><path d="M779.377778 927.971556h-398.222222c-17.066667 0-34.133333-17.066667-34.133334-34.133334s17.066667-34.133333 34.133334-34.133333h398.222222c34.133333 0 56.888889-28.444444 56.888889-56.888889 0-34.133333-28.444444-56.888889-56.888889-56.888889h-568.888889c-34.133333 0-68.266667-11.377778-91.022222-39.822222-22.755556-22.755556-39.822222-56.888889-39.822223-91.022222 0-34.133333 11.377778-68.266667 39.822223-91.022223 22.755556-22.755556 56.888889-39.822222 91.022222-39.822222H341.333333c17.066667 0 34.133333 17.066667 34.133334 34.133334s-11.377778 28.444444-34.133334 28.444444H210.488889c-17.066667 0-28.444444 5.688889-39.822222 17.066667-11.377778 11.377778-17.066667 28.444444-17.066667 39.822222 0 17.066667 5.688889 28.444444 17.066667 39.822222 11.377778 11.377778 28.444444 17.066667 39.822222 17.066667h568.888889c73.955556 0 130.844444 56.888889 130.844444 130.844444 0 79.644444-56.888889 136.533333-130.844444 136.533334z" fill="currentColor" p-id="3530"></path></svg>