<?xml version="1.0" standalone="no"?><!DOCTYPE svg PUBLIC "-//W3C//DTD SVG 1.1//EN" "http://www.w3.org/Graphics/SVG/1.1/DTD/svg11.dtd"><svg t="1782457915897" class="icon" viewBox="0 0 1024 1024" version="1.1" xmlns="http://www.w3.org/2000/svg" p-id="1112" xmlns:xlink="http://www.w3.org/1999/xlink" width="128" height="128"><path d="M199.808 764.16A29.141333 29.141333 0 0 1 170.666667 734.976V327.808A29.098667 29.098667 0 0 1 199.808 298.666667v465.493333zM287.104 298.666667v465.493333H228.778667V298.666667H287.146667zM345.173333 298.666667v465.493333h-29.098666V298.666667h29.141333zM446.976 298.666667v465.493333H374.314667V298.666667h72.661333zM522.026667 298.666667v465.493333h-45.952V298.666667h45.952zM665.130667 298.666667v465.493333h-81.92V298.666667h81.92zM723.413333 298.666667v465.493333h-29.141333V298.666667h29.141333zM781.525333 298.666667a29.141333 29.141333 0 0 1 29.141334 29.141333v407.210667a29.226667 29.226667 0 0 1-29.141334 29.098666h-29.098666V298.666667h29.098666z" p-id="1113"></path><path d="M810.666667 170.666667a128 128 0 0 1 128 128v469.333333a128 128 0 0 1-121.429334 127.829333L810.666667 896H170.666667l-6.570667-0.170667a128 128 0 0 1-121.258667-121.258666L42.666667 768V298.666667a128 128 0 0 1 128-128h640zM170.666667 213.333333a85.333333 85.333333 0 0 0-85.333334 85.333334v469.333333a85.333333 85.333333 0 0 0 85.333334 85.333333h640a85.333333 85.333333 0 0 0 85.333333-85.333333V298.666667a85.333333 85.333333 0 0 0-85.333333-85.333334H170.666667z" p-id="1114"></path></svg>