<?xml version="1.0" standalone="no"?><!DOCTYPE svg PUBLIC "-//W3C//DTD SVG 1.1//EN" "http://www.w3.org/Graphics/SVG/1.1/DTD/svg11.dtd"><svg t="1782457608763" class="icon" viewBox="0 0 1024 1024" version="1.1" xmlns="http://www.w3.org/2000/svg" p-id="2071" xmlns:xlink="http://www.w3.org/1999/xlink" width="128" height="128"><path d="M458.701639 214.032787C413.796721 236.695082 390.295082 271.947541 386.937705 321.468852c-1.678689 26.019672-0.419672 33.154098 9.652459 55.816394 14.268852 31.055738 43.645902 59.593443 72.183606 69.245902 10.911475 3.777049 32.314754 6.714754 47.422951 6.714754 54.557377 0 99.042623-33.154098 117.508197-88.131148 11.331148-33.154098 9.232787-58.754098-7.97377-95.265574-20.563934-43.22623-54.977049-64.629508-107.436066-67.567213-31.055738-1.259016-35.672131-0.419672-59.593443 11.75082zM195.147541 286.636066c-32.314754 12.590164-54.137705 34.832787-64.209836 65.468852-27.278689 79.318033 58.754098 152.340984 135.97377 116.24918C343.291803 432.681967 339.934426 318.95082 261.87541 289.993443c-25.6-9.652459-47.422951-10.911475-66.727869-3.357377zM765.062295 287.895082c-21.822951 7.97377-53.718033 41.547541-59.593443 62.95082-21.822951 78.478689 47.842623 146.045902 125.90164 122.963934 49.101639-14.688525 78.898361-75.960656 60.852459-125.901639-18.045902-50.360656-77.219672-78.478689-127.160656-60.013115zM435.619672 497.311475C369.731148 513.678689 317.272131 562.360656 297.547541 625.311475c-7.134426 23.081967-8.393443 38.190164-7.973771 95.685246 0 70.92459 2.098361 80.996721 18.465574 94.006558 7.97377 6.714754 25.6 7.554098 204.8 7.554098H709.245902l13.429508-12.170492 13.84918-12.170492 1.259017-60.013114c0.839344-32.734426-0.839344-71.763934-3.357377-87.291804-11.75082-68.82623-59.17377-124.222951-126.321312-147.72459-22.242623-7.97377-36.931148-9.652459-87.711475-10.911475-42.386885-0.419672-68.406557 0.839344-84.773771 5.036065zM168.708197 514.098361c-57.07541 15.947541-91.908197 47.842623-110.373771 101.560655-6.295082 18.465574-7.97377 34.832787-7.97377 75.960656v52.039344l14.268852 14.268853 14.268853 14.268852H256v-51.619672c0-80.157377 13.009836-125.901639 48.681967-172.485246 8.393443-10.911475 14.268852-20.563934 13.429508-21.403278-0.419672-0.419672-10.491803-4.196721-22.242623-8.393443-29.377049-10.072131-98.622951-12.170492-127.160655-4.196721z" p-id="2072"></path><path d="M741.140984 514.518033c-36.931148 8.813115-38.609836 11.75082-21.822951 32.734426 35.252459 42.386885 48.681967 89.809836 48.681967 169.547541V772.196721h176.262295l13.429508-12.170491c13.84918-12.170492 13.84918-12.590164 15.108197-57.495082 2.937705-89.809836-17.62623-138.072131-72.183607-169.127869-43.22623-24.760656-104.918033-31.895082-159.475409-18.885246z" p-id="2073"></path></svg>