<?xml version="1.0" standalone="no"?><!DOCTYPE svg PUBLIC "-//W3C//DTD SVG 1.1//EN" "http://www.w3.org/Graphics/SVG/1.1/DTD/svg11.dtd"><svg t="1782457628196" class="icon" viewBox="0 0 1024 1024" version="1.1" xmlns="http://www.w3.org/2000/svg" p-id="2403" xmlns:xlink="http://www.w3.org/1999/xlink" width="128" height="128"><path d="M473.358491 63.275472C355.984906 80.664151 279.184906 173.886792 306.233962 266.626415c9.660377 33.811321 39.607547 72.45283 71.486793 92.256604l24.150943 14.973585-3.381132 22.218868c-6.279245 39.124528-5.796226 45.886792 4.830189 47.335849 5.313208 0.483019 26.083019-9.660377 46.85283-23.184906 34.777358-22.701887 38.641509-24.150943 69.071698-24.150943 85.977358 0 162.777358-44.437736 193.207547-112.060378 11.592453-25.116981 13.041509-33.811321 11.109434-61.343396-4.830189-61.343396-38.158491-106.74717-101.916981-138.143396-32.362264-15.456604-81.630189-27.049057-109.645283-26.083019-6.762264 0.483019-24.150943 2.415094-38.641509 4.830189zM430.369811 207.698113c6.279245 3.381132 9.177358 10.143396 9.177359 20.769812 0 19.320755-7.245283 27.532075-24.150944 27.532075-16.422642 0-24.150943-8.211321-24.150943-26.566038 0-24.150943 16.90566-33.328302 39.124528-21.735849z m93.705661-1.932075c13.041509 5.313208 18.354717 25.6 9.660377 38.641509-16.90566 26.083019-57.479245 5.313208-46.369811-23.667924 6.279245-15.939623 19.320755-21.25283 36.709434-14.973585z m104.815094 5.313207c10.626415 9.660377 11.109434 20.286792 0.966038 34.29434-8.211321 11.592453-29.94717 14.490566-39.607547 4.830189-8.69434-8.69434-7.245283-36.226415 2.898113-42.022642 12.075472-7.245283 25.6-6.279245 35.743396 2.898113zM189.826415 348.256604c-63.275472 12.075472-104.332075 79.698113-86.460377 142.007547 18.837736 64.241509 91.290566 101.433962 148.286792 76.316981 50.233962-22.218868 74.384906-57.479245 73.901887-107.713207-0.483019-73.901887-63.275472-125.101887-135.728302-110.611321zM779.109434 349.70566c-42.022642 13.524528-69.554717 44.920755-79.215094 89.84151-10.143396 46.369811 15.939623 98.535849 60.377358 122.203773 27.049057 14.007547 74.867925 14.490566 101.916981 0 40.573585-21.25283 62.309434-56.513208 61.826415-100.467924 0-32.845283-8.211321-55.064151-28.498113-79.215094-25.116981-29.94717-78.249057-44.437736-116.407547-32.362265zM140.075472 604.256604c-26.566038 12.075472-50.716981 34.29434-64.24151 59.894339-10.143396 18.354717-10.626415 25.116981-10.626415 159.396227v140.075472l99.018868 1.449056c54.581132 0.483019 103.849057 0 110.128302-1.449056 10.626415-2.415094 10.626415-2.898113 10.626415-97.086793v-94.671698l19.803774 17.388679c27.532075 23.667925 47.335849 29.464151 68.10566 20.769812 24.633962-10.626415 122.686792-106.74717 129.449057-126.550944 8.211321-24.150943-4.34717-48.784906-28.498114-56.030189-24.633962-7.245283-35.743396-1.449057-81.630188 41.539623l-39.124529 36.709434-41.539622-40.090566c-69.554717-67.622642-118.339623-85.49434-171.471698-61.343396zM799.396226 599.909434c-38.158491 13.524528-55.54717 33.328302-104.332075 116.890566l-37.192453 63.275472-66.173585 2.415094c-65.207547 2.415094-66.173585 2.415094-77.766038 15.939623-15.456604 17.871698-15.456604 42.022642 0 59.894339l11.592453 13.524529h86.943397c96.603774 0 93.70566 0.966038 121.720754-37.192453l13.524529-18.354717 2.415094 14.007547c1.449057 7.728302 1.449057 36.709434 0 64.241509-3.864151 76.316981-10.626415 71.486792 104.332075 71.486793 77.283019 0 97.086792-1.449057 101.433963-6.762264 4.34717-5.313208 5.313208-43.471698 4.347169-141.524529-1.449057-127.033962-1.932075-135.245283-12.075471-153.6-29.464151-55.064151-95.154717-83.079245-148.769812-64.241509z" p-id="2404"></path></svg>