<?xml version="1.0" standalone="no"?><!DOCTYPE svg PUBLIC "-//W3C//DTD SVG 1.1//EN" "http://www.w3.org/Graphics/SVG/1.1/DTD/svg11.dtd"><svg t="1782457491681" class="icon" viewBox="0 0 1024 1024" version="1.1" xmlns="http://www.w3.org/2000/svg" p-id="1464" width="128" height="128" xmlns:xlink="http://www.w3.org/1999/xlink"><path d="M769.763556 718.563556v-73.955556c34.133333 0 68.266667-11.377778 96.711111-39.822222s39.822222-56.888889 39.822222-96.711111c0-34.133333-11.377778-68.266667-39.822222-96.711111-22.755556-28.444444-56.888889-39.822222-96.711111-39.822223l-5.688889-73.955555h5.688889c56.888889 0 108.088889 22.755556 142.222222 62.577778s56.888889 91.022222 56.888889 147.911111-22.755556 108.088889-62.577778 142.222222c-34.133333 45.511111-85.333333 68.266667-136.533333 68.266667z" fill="currentColor" p-id="1465"></path><path d="M257.763556 718.563556h-5.688889c-56.888889 0-108.088889-22.755556-142.222223-62.577778-39.822222-39.822222-56.888889-91.022222-56.888888-147.911111s22.755556-108.088889 62.577777-142.222223c39.822222-39.822222 91.022222-56.888889 147.911111-56.888888v73.955555c-34.133333 0-68.266667 11.377778-96.711111 39.822222-28.444444 22.755556-39.822222 56.888889-39.822222 96.711111 0 34.133333 11.377778 68.266667 39.822222 96.711112s56.888889 39.822222 96.711111 39.822222h-5.688888v62.577778z" fill="currentColor" p-id="1466"></path><path d="M513.763556 974.563556c-17.066667 0-34.133333-17.066667-34.133334-34.133334s17.066667-34.133333 34.133334-34.133333c119.466667 0 221.866667-96.711111 221.866666-221.866667v-341.333333c0-119.466667-96.711111-221.866667-221.866666-221.866667s-221.866667 102.4-221.866667 221.866667v341.333333c0 17.066667-17.066667 34.133333-34.133333 34.133334s-34.133333-17.066667-34.133334-34.133334v-341.333333c0-159.288889 130.844444-290.133333 290.133334-290.133333s290.133333 130.844444 290.133333 290.133333v341.333333c0 159.288889-130.844444 290.133333-290.133333 290.133334z" fill="currentColor" p-id="1467"></path></svg>