<?xml version="1.0" standalone="no"?><!DOCTYPE svg PUBLIC "-//W3C//DTD SVG 1.1//EN" "http://www.w3.org/Graphics/SVG/1.1/DTD/svg11.dtd"><svg t="1782457526110" class="icon" viewBox="0 0 1024 1024" version="1.1" xmlns="http://www.w3.org/2000/svg" p-id="1871" xmlns:xlink="http://www.w3.org/1999/xlink" width="128" height="128"><path d="M910.222222 347.022222c-17.066667 0-34.133333-17.066667-34.133333-34.133333V147.911111h-164.977778c-17.066667 0-34.133333-17.066667-34.133333-34.133333s17.066667-34.133333 34.133333-34.133334H910.222222c17.066667 0 34.133333 17.066667 34.133334 34.133334v199.111111c0 17.066667-17.066667 34.133333-34.133334 34.133333zM910.222222 944.355556h-199.111111c-17.066667 0-34.133333-17.066667-34.133333-34.133334s17.066667-34.133333 34.133333-34.133333h164.977778v-164.977778c0-17.066667 17.066667-34.133333 34.133333-34.133333s34.133333 17.066667 34.133334 34.133333V910.222222c0 17.066667-17.066667 34.133333-34.133334 34.133334zM312.888889 944.355556H113.777778c-17.066667 0-34.133333-17.066667-34.133334-34.133334v-199.111111c0-17.066667 17.066667-34.133333 34.133334-34.133333s34.133333 17.066667 34.133333 34.133333v164.977778h164.977778c17.066667 0 34.133333 17.066667 34.133333 34.133333s-17.066667 34.133333-34.133333 34.133334zM113.777778 347.022222c-17.066667 0-34.133333-17.066667-34.133334-34.133333V113.777778c0-17.066667 17.066667-34.133333 34.133334-34.133334h199.111111c17.066667 0 34.133333 17.066667 34.133333 34.133334s-17.066667 34.133333-34.133333 34.133333H147.911111v164.977778c0 17.066667-17.066667 34.133333-34.133333 34.133333z" fill="currentColor" p-id="1872"></path></svg>