<?xml version="1.0" standalone="no"?><!DOCTYPE svg PUBLIC "-//W3C//DTD SVG 1.1//EN" "http://www.w3.org/Graphics/SVG/1.1/DTD/svg11.dtd"><svg t="1782457840883" class="icon" viewBox="0 0 1024 1024" version="1.1" xmlns="http://www.w3.org/2000/svg" p-id="1473" xmlns:xlink="http://www.w3.org/1999/xlink" width="128" height="128"><path d="M723.094453 877.129435H153.523238c-84.437781 0-153.523238-69.085457-153.523238-153.523238V153.523238C0 69.085457 69.085457 0 153.523238 0h569.571215c84.437781 0 153.523238 69.085457 153.523238 153.523238v570.082959c0 84.437781-69.085457 153.523238-153.523238 153.523238z" fill="currentColor" p-id="1474"></path><path d="M401.207396 166.316842c15.864068 0 30.192904 7.676162 39.916042 19.958021 19.958021 27.634183 45.545227 71.644178-2.55872 171.946027 24.563718 46.056972 51.174413 87.508246 89.555222 122.81859 32.23988-6.14093 64.47976-17.911044 96.207896-17.911044 71.644178 1.535232 94.672664 39.404298 93.137431 59.362319 0 52.197901-42.986507 69.085457-85.461269 66.014992-41.451274-2.558721-84.437781-29.169415-116.165917-56.291854-62.944528 13.817091-122.306847 33.775112-182.18091 58.338831-34.798601 104.395802-91.602199 127.424288-129.983008 127.424287-7.676162 0-16.887556-1.535232-23.028486-6.140929-15.864068-7.676162-26.098951-23.54023-26.09895-41.451274 0-13.817091-4.093953-93.649175 148.405797-133.565218 30.704648-73.691154 49.127436-103.372314 74.714642-171.434283-42.986507-60.385807-51.686157-127.424288-24.563718-173.481259 10.234883-17.911044 28.145927-27.122439 48.103948-25.587206z m-101.837081 409.395302c-36.845577 17.911044-81.87906 50.150925-77.273363 71.132434 3.070465 13.817091 18.934533 9.211394 47.592203-14.328836 17.911044-23.028486 20.981509-35.310345 29.68116-56.803598z m332.633683-71.644178c-14.84058 0-28.145927 3.070465-42.474763 9.723138 13.305347 14.84058 25.587206 26.610695 41.963019 30.192904 11.258371 3.070465 33.775112 7.164418 39.916042-10.234883 6.652674-17.3993-6.652674-29.681159-39.404298-29.681159zM415.024488 425.25937c-12.793603 30.192904-26.098951 60.385807-39.916042 90.066967l90.066966-30.192904c-18.934533-18.934533-35.822089-37.357321-50.150924-59.874063z m-14.328836-192.415792c-9.211394 1.535232-13.817091 12.793603-16.375812 20.981509-4.605697 23.028486 7.676162 49.127436 23.54023 67.550225 12.793603-19.446277 15.864068-37.357321 11.258371-63.456272-6.14093-17.911044-12.281859-26.098951-18.422789-25.075462z" fill="#FFFFFF" p-id="1475"></path><path d="M921.651174 1024h-311.140429c-56.291854 0-102.348826-46.056972-102.348826-102.348826v-311.140429c0-56.291854 46.056972-102.348826 102.348826-102.348826h311.140429c56.291854 0 102.348826 46.056972 102.348826 102.348826v311.140429c0 56.291854-46.056972 102.348826-102.348826 102.348826z" fill="currentColor" opacity=".9" p-id="1476"></path><path d="M824.41979 895.04048l-57.315342-82.390805-57.315343 82.390805h-64.47976l89.555223-127.936032-89.555223-127.936032h64.47976l57.315343 81.87906 57.315342-81.87906h64.47976l-89.555222 127.936032 89.555222 127.936032z" fill="#FFFFFF" p-id="1477"></path></svg>