<?xml version="1.0" standalone="no"?><!DOCTYPE svg PUBLIC "-//W3C//DTD SVG 1.1//EN" "http://www.w3.org/Graphics/SVG/1.1/DTD/svg11.dtd"><svg t="1782457667313" class="icon" viewBox="0 0 1024 1024" version="1.1" xmlns="http://www.w3.org/2000/svg" p-id="2894" xmlns:xlink="http://www.w3.org/1999/xlink" width="128" height="128"><path d="M410.127835 67.035052c-2.11134 1.583505-3.694845 19.002062-3.694845 38.531958 0 80.758763-31.670103 147.265979-116.651547 243.859794C202.68866 448.659794 160.461856 516.22268 144.626804 583.785567c-12.668041 53.839175-7.917526 130.903093 11.084536 177.880412 31.670103 79.175258 96.065979 144.098969 176.824742 178.408248 72.313402 30.614433 98.705155 19.529897 58.061856-24.808248-32.725773-35.364948-43.810309-64.395876-46.449484-121.402061-3.16701-69.674227 16.890722-125.096907 68.618556-190.548454 29.558763-37.476289 77.591753-81.814433 84.453609-77.591753 2.11134 1.583505 4.22268 18.474227 4.22268 38.004124 0 57.006186 14.779381 94.482474 52.25567 134.070103 21.641237 23.224742 33.253608 25.336082 41.698969 6.861856 7.917526-17.418557 16.890722-12.668041 36.420619 20.057732 40.643299 67.562887 36.948454 137.764948-9.501031 190.020618-36.420619 41.698969-24.808247 53.839175 32.197938 35.364949 83.397938-26.919588 156.76701-90.787629 194.771134-169.962887 25.336082-52.783505 32.197938-84.981443 32.197938-146.210309 0-57.006186-13.723711-114.540206-40.643299-167.851546-21.113402-42.226804-58.589691-91.315464-82.342268-109.261856-14.251546-10.556701-15.307216-10.556701-21.641237-1.583505-4.22268 4.750515-8.445361 19.529897-10.028866 32.725773-2.11134 13.195876-7.389691 31.670103-12.140206 41.171134-10.028866 19.529897-43.810309 56.478351-52.25567 56.47835-3.694845 0-4.750515-19.002062-3.694846-57.006185 3.16701-97.649485-22.696907-177.880412-81.286598-250.193815C527.835052 116.651546 427.018557 49.616495 410.127835 67.035052z" p-id="2895"></path></svg>