<?xml version="1.0" standalone="no"?><!DOCTYPE svg PUBLIC "-//W3C//DTD SVG 1.1//EN" "http://www.w3.org/Graphics/SVG/1.1/DTD/svg11.dtd"><svg t="1782458059530" class="icon" viewBox="0 0 1024 1024" version="1.1" xmlns="http://www.w3.org/2000/svg" p-id="6759" xmlns:xlink="http://www.w3.org/1999/xlink" width="128" height="128"><path d="M530.798 64c-5.786 0-11.759 0.299-17.88 0.784-157.798 12.431-115.95 179.448-118.34 235.108-2.874 40.803-11.198 72.945-39.234 112.776-33.037 39.235-79.402 102.66-101.39 168.772-10.378 31.06-15.305 62.865-10.714 92.916a15.828 15.828 0 0 0-4.143 5.04c-9.706 10.004-16.762 22.436-24.713 31.32-7.429 7.43-18.106 9.968-29.753 14.933-11.684 4.965-24.564 9.93-32.254 25.31-3.36 7.018-5.077 14.67-4.928 22.435 0 7.43 1.008 14.97 2.053 20.01 2.165 14.895 4.33 27.214 1.456 36.21-9.258 25.385-10.415 42.781-3.92 55.436 6.496 12.469 19.972 17.509 35.054 22.436 30.275 7.466 71.301 5.04 103.592 22.361 34.569 17.434 69.66 25.05 97.657 17.546a66.01 66.01 0 0 0 45.096-35.278c21.913-0.112 45.917-10.042 84.367-12.468 26.094-2.165 58.759 9.967 96.239 7.429 0.933 5.04 2.351 7.428 4.255 12.468l0.112 0.112c14.597 29.043 41.55 42.258 70.331 39.981 28.782-2.24 59.43-20.01 84.255-48.754 23.556-28.558 62.828-40.466 88.773-56.108 12.99-7.429 23.48-17.508 24.227-31.843 0.859-14.932-7.428-30.312-26.654-51.404v-3.621l-0.112-0.112c-6.346-7.466-9.332-19.972-12.617-34.568-3.174-14.97-6.795-29.342-18.367-39.048h-0.112c-2.203-2.016-4.592-2.501-7.018-5.04a13.327 13.327 0 0 0-7.093-2.389c16.09-47.709 9.855-95.193-6.458-137.9-19.898-52.636-54.69-98.478-81.195-130.022-29.715-37.517-58.833-73.056-58.273-125.767C664.106 212.837 671.946 64.224 530.798 64" p-id="6760"></path></svg>