<?xml version="1.0" standalone="no"?><!DOCTYPE svg PUBLIC "-//W3C//DTD SVG 1.1//EN" "http://www.w3.org/Graphics/SVG/1.1/DTD/svg11.dtd"><svg t="1782895793210" class="icon" viewBox="0 0 1024 1024" version="1.1" xmlns="http://www.w3.org/2000/svg" p-id="14782" xmlns:xlink="http://www.w3.org/1999/xlink" width="256" height="256"><path d="M424.228571 65.633524 424.228571 0 92.647619 105.618286 79.676952 217.770667 55.296 105.618286 19.504762 105.618286 117.028571 1019.12381 424.228571 1019.12381 424.228571 527.798857C429.884952 476.208762 455.338667 343.381333 565.638095 359.18019 649.313524 371.175619 664.624762 473.478095 660.918857 567.393524 642.681905 755.809524 565.638095 1002.837333 565.638095 1002.837333L994.742857 1022.342095C994.742857 1022.342095 1122.011429-175.542857 424.228571 65.633524L424.228571 65.633524ZM755.224381 608.646095C752.786286 637.903238 748.202667 667.160381 743.326476 694.662095 738.450286 722.16381 732.208762 748.690286 725.967238 773.558857 719.725714 798.427429 712.899048 821.638095 706.462476 842.99581 693.101714 885.613714 679.740952 920.33219 669.891048 944.323048 660.041143 968.313905 653.409524 981.77219 653.409524 981.77219L662.674286 942.08C668.42819 916.821333 676.425143 880.835048 685.104762 837.534476 689.493333 815.88419 693.686857 792.380952 698.075429 767.609905 702.464 742.838857 706.072381 716.507429 709.87581 689.590857 713.679238 662.674286 716.117333 634.392381 717.970286 606.012952 720.023727 577.483645 720.316854 548.854896 718.848 520.289524 717.822814 492.269505 713.934131 464.42784 707.242667 437.199238 701.094917 411.851055 690.208489 387.894297 675.157333 366.592 671.461619 361.752829 667.454663 357.159488 663.161905 352.841143 661.504 350.890667 658.480762 348.452571 656.14019 346.209524L654.287238 344.551619 653.409524 343.381333 649.703619 340.455619C640.318989 332.639556 630.341567 325.564064 619.861333 319.292952 600.717027 307.876938 579.726986 299.890161 557.83619 295.69219 539.003628 292.467901 519.777118 292.270369 500.882286 295.107048 485.933723 297.443666 471.283896 301.400428 457.191619 306.907429 444.546794 311.609779 432.474589 317.727672 421.205333 325.144381 421.205333 325.144381 423.740952 322.413714 429.007238 317.732571 436.642624 310.995031 444.867659 304.95681 453.583238 299.690667 467.287516 291.281938 482.044143 284.723437 497.468952 280.185905 517.824783 273.986107 539.145256 271.573091 560.37181 273.066667 572.693803 273.922729 584.906623 275.947314 596.845714 279.113143 609.562977 282.524511 621.962021 287.027321 633.904762 292.571429 646.360657 298.676382 658.298102 305.786663 669.598476 313.831619L673.889524 316.952381C674.767238 317.635048 674.962286 317.635048 676.522667 318.902857L678.473143 320.463238C681.20381 322.80381 683.544381 324.36419 686.567619 327.387429 692.168181 332.802071 697.382234 338.602706 702.171429 344.746667 721.535821 369.013819 735.559851 397.095112 743.326476 427.154286 751.279336 456.918027 755.95573 487.461747 757.272381 518.241524 758.446279 548.389849 757.762318 578.581857 755.224381 608.646095L755.224381 608.646095Z" p-id="14783"></path></svg>