<?xml version="1.0" standalone="no"?><!DOCTYPE svg PUBLIC "-//W3C//DTD SVG 1.1//EN" "http://www.w3.org/Graphics/SVG/1.1/DTD/svg11.dtd"><svg t="1782457616107" class="icon" viewBox="0 0 1024 1024" version="1.1" xmlns="http://www.w3.org/2000/svg" p-id="2237" xmlns:xlink="http://www.w3.org/1999/xlink" width="128" height="128"><path d="M198.337864 71.580583c-36.287379 24.854369-34.796117 3.479612-33.304854 446.384466 1.491262 391.207767 1.491262 396.178641 11.930097 409.6 5.467961 7.456311 16.403883 18.392233 23.860194 23.860194 13.421359 10.438835 18.392233 10.438835 311.176699 10.438835s297.75534 0 311.176699-10.438835c7.456311-5.467961 18.392233-16.403883 23.860194-23.860194 10.438835-13.421359 10.438835-19.386408 11.930097-319.130098L859.961165 303.223301l-120.792233-121.786408L617.879612 59.650485H216.23301l-17.895146 11.930098z m577.615534 228.163106c-2.485437 2.485437-33.801942 3.479612-69.592233 2.982525-63.130097-1.98835-65.118447-2.485437-78.539806-15.906797-13.918447-13.421359-13.918447-14.415534-15.409709-86.990291l-1.491262-73.071844 84.504855 84.504854c49.21165 48.714563 83.013592 85.996117 80.528155 88.481553zM495.596117 358.897087c23.363107 19.386408 28.831068 69.095146 13.918446 124.768932l-8.947573 33.304855 14.415534 20.87767c7.953398 11.43301 24.357282 31.813592 36.287379 45.234951l22.368932 24.357282 37.281553-2.982525c73.071845-6.462136 124.768932 16.900971 124.768932 56.170874-0.497087 22.866019-9.44466 34.796117-31.813592 40.761165-28.831068 7.953398-74.066019-8.450485-129.739806-47.223301-8.450485-5.965049-16.403883-5.467961-54.679611 1.98835-83.013592 16.403883-82.516505 16.403883-99.417476 48.217476-7.953398 15.409709-25.848544 40.264078-39.76699 55.176699-22.866019 24.854369-27.339806 27.339806-50.702913 29.328155-23.860194 2.485437-26.842718 1.491262-41.75534-12.924272-13.918447-14.415534-15.409709-18.392233-12.924272-36.784466 3.976699-29.825243 35.790291-57.662136 86.493204-75.557282 21.374757-7.953398 41.258252-16.403883 44.240777-19.386407 6.959223-6.959223 46.229126-99.417476 49.708738-116.815534 1.491262-7.953398-2.982524-27.339806-12.427185-50.702913-18.88932-47.223301-23.363107-73.071845-15.409708-95.937864 9.44466-29.328155 45.732039-40.761165 68.100971-21.871845z" p-id="2238"></path><path d="M460.8 385.739806c-9.44466 9.44466 2.982524 76.054369 14.912621 80.031068 7.953398 2.982524 13.918447-48.217476 7.953398-66.609709-4.473786-13.421359-15.906796-20.380583-22.866019-13.421359zM470.24466 593.52233c-7.953398 18.392233-12.924272 34.796117-10.935922 36.287379 4.473786 4.473786 64.124272-9.941748 66.112621-15.906796 0.994175-2.982524-7.953398-15.906796-19.386408-29.328156l-21.374757-23.860194-14.415534 32.807767zM624.341748 640.248544c-3.976699 6.462136 16.403883 19.386408 43.246602 26.842718 34.299029 8.947573 50.702913-2.485437 26.345631-18.392233-14.912621-9.941748-65.118447-15.906796-69.592233-8.450485zM350.446602 704.372816c-32.807767 16.900971-42.252427 25.351456-42.252427 39.76699 0 9.44466 2.485437 11.43301 13.918446 11.43301 15.409709 0 28.831068-9.941748 47.223301-35.293204 12.924272-17.398058 16.900971-29.328155 9.941748-29.328156-2.485437 0.497087-14.912621 5.965049-28.831068 13.42136z" p-id="2239"></path></svg>