<?xml version="1.0" standalone="no"?><!DOCTYPE svg PUBLIC "-//W3C//DTD SVG 1.1//EN" "http://www.w3.org/Graphics/SVG/1.1/DTD/svg11.dtd"><svg t="1782457571998" class="icon" viewBox="0 0 1024 1024" version="1.1" xmlns="http://www.w3.org/2000/svg" p-id="3364" xmlns:xlink="http://www.w3.org/1999/xlink" width="128" height="128"><path d="M514.730667 878.990222c-96.711111 0-193.422222-39.822222-261.688889-108.088889s-108.088889-159.288889-108.088889-261.688889c0-204.8 164.977778-369.777778 369.777778-369.777777s369.777778 164.977778 369.777777 369.777777c-5.688889 204.8-170.666667 369.777778-369.777777 369.777778z m0-665.6c-164.977778 0-295.822222 130.844444-295.822223 295.822222 0 164.977778 130.844444 295.822222 295.822223 295.822223v34.133333-34.133333c164.977778 0 295.822222-130.844444 295.822222-295.822223 0-159.288889-136.533333-295.822222-295.822222-295.822222z" fill="currentColor" p-id="3365"></path><path d="M287.175111 765.212444c-79.644444 0-147.911111-11.377778-193.422222-39.822222-39.822222-22.755556-51.2-51.2-56.888889-68.266666-17.066667-62.577778 28.444444-130.844444 125.155556-193.422223 17.066667-11.377778 39.822222-5.688889 51.2 11.377778 11.377778 17.066667 5.688889 39.822222-11.377778 51.2-79.644444 51.2-102.4 96.711111-96.711111 119.466667 0 11.377778 11.377778 17.066667 22.755555 28.444444 56.888889 34.133333 216.177778 45.511111 415.288889-11.377778 250.311111-68.266667 386.844444-182.044444 375.466667-233.244444-5.688889-17.066667-39.822222-45.511111-130.844445-51.2-17.066667 0-34.133333-17.066667-34.133333-39.822222 0-17.066667 17.066667-34.133333 39.822222-34.133334 136.533333 11.377778 182.044444 62.577778 193.422222 102.4 34.133333 130.844444-187.733333 261.688889-426.666666 324.266667-96.711111 22.755556-193.422222 34.133333-273.066667 34.133333z" fill="currentColor" p-id="3366"></path></svg>