<?xml version="1.0" standalone="no"?><!DOCTYPE svg PUBLIC "-//W3C//DTD SVG 1.1//EN" "http://www.w3.org/Graphics/SVG/1.1/DTD/svg11.dtd"><svg t="1782457604822" class="icon" viewBox="0 0 1024 1024" version="1.1" xmlns="http://www.w3.org/2000/svg" p-id="1906" xmlns:xlink="http://www.w3.org/1999/xlink" width="128" height="128"><path d="M443.901478 65.071921c-92.31133 13.115271-177.056158 56.496552-247.172414 126.108375-58.514286 58.009852-89.789163 107.948768-112.993103 180.082758-42.876847 133.674877-24.717241 267.854187 51.95665 384.378325C189.666995 837.359606 267.349754 898.900493 359.15665 933.20197c79.700493 29.257143 183.613793 34.301478 266.340887 12.610838 244.650246-65.071921 383.873892-306.191133 320.315271-554.876847-10.593103-41.363547-48.425616-118.037438-75.160591-152.84335-60.53202-78.691626-150.321182-138.719212-244.650247-163.436453-42.876847-11.097537-137.205911-16.141872-182.100492-9.584237z m9.584236 267.349754c273.402956 166.463054 264.827586 160.914286 266.84532 177.560591 1.008867 7.062069-2.522167 17.655172-7.566502 23.203941-5.044335 6.053202-74.656158 51.95665-154.861084 101.895566-150.321182 93.824631-168.480788 101.895567-179.578325 81.718227-3.026601-6.557635-5.044335-79.196059-5.044335-201.773399 0-185.631527 0.504433-192.693596 10.08867-202.277833 5.548768-5.548768 12.610837-10.08867 15.637439-10.088669 3.026601 0 27.743842 13.115271 54.478817 29.761576z" p-id="1907"></path></svg>