<?xml version="1.0" standalone="no"?><!DOCTYPE svg PUBLIC "-//W3C//DTD SVG 1.1//EN" "http://www.w3.org/Graphics/SVG/1.1/DTD/svg11.dtd"><svg t="1782457920887" class="icon" viewBox="0 0 1024 1024" version="1.1" xmlns="http://www.w3.org/2000/svg" p-id="1276" xmlns:xlink="http://www.w3.org/1999/xlink" width="128" height="128"><path d="M803.669333 515.541333c21.589333 0 39.082667 17.408 39.082667 39.125334v9.386666c0 11.946667 8.32 22.186667 19.413333 26.709334 11.093333 4.437333 23.893333 2.730667 32.213334-5.845334l10.538666-10.922666a39.082667 39.082667 0 1 1 56.32 54.357333l-8.106666 8.32c-9.642667 9.984-11.008 25.002667-5.546667 37.76 5.418667 12.672 17.28 22.357333 31.104 22.357333h6.186667c21.589333 0 39.125333 17.365333 39.125333 39.125334a39.04 39.04 0 0 1-39.125333 39.082666h-9.984c-11.605333 0-21.589333 8.064-25.898667 18.816-4.309333 10.837333-2.432 23.466667 6.101333 31.402667l5.802667 5.418667a39.04 39.04 0 0 1-25.258667 67.754666 39.082667 39.082667 0 0 1-28.032-10.538666l-3.285333-2.986667c-10.325333-9.685333-25.770667-10.837333-38.741333-5.248a156.16 156.16 0 0 1-4.522667 1.877333c-10.538667 4.181333-18.304 13.866667-18.304 25.173334a39.04 39.04 0 0 1-39.082667 39.125333 39.04 39.04 0 0 1-39.125333-39.125333c0-11.306667-7.765333-20.992-18.304-25.173334l-3.242667-1.322666c-12.458667-5.248-27.221333-3.754667-36.778666 5.845333l-1.365334 1.365333a39.168 39.168 0 1 1-55.338666-55.338666l3.669333-3.669334c8.661333-8.661333 10.24-22.058667 5.546667-33.408l-0.64-1.706666c-4.181333-10.496-13.909333-18.261333-25.216-18.261334a38.997333 38.997333 0 0 1-39.082667-39.082666c0-21.589333 17.322667-39.125333 39.082667-39.125334 11.306667 0 21.034667-7.765333 25.173333-18.304l1.408-3.413333c5.461333-12.928 3.84-28.245333-6.229333-37.973333l-2.346667-2.261334a38.997333 38.997333 0 0 1 11.52-64 39.125333 39.125333 0 0 1 42.794667 7.722667l7.381333 7.125333c8.533333 8.234667 21.248 9.685333 32.170667 5.248 11.306667-4.650667 19.797333-15.104 19.797333-27.306666V554.666667c0-21.589333 17.365333-39.125333 39.125333-39.125334z m0 142.122667a78.293333 78.293333 0 1 0 29.909334 150.485333 78.165333 78.165333 0 0 0 25.386666-127.573333 78.208 78.208 0 0 0-55.296-22.912z" p-id="1277"></path><path d="M711.082667 46.208c43.178667 0 78.250667 35.029333 78.250666 78.250667v82.133333h78.208A113.408 113.408 0 0 1 980.949333 320v156.458667h-70.4V320c0-23.765333-19.242667-43.008-43.008-43.008h-704c-23.765333 0-43.008 19.242667-43.008 43.008v352c0 23.765333 19.242667 43.050667 43.008 43.050667h82.133334V672a113.450667 113.450667 0 0 1 113.408-113.408H554.666667v70.4H359.082667c-23.722667 0-43.008 19.242667-43.008 43.008v156.458667a43.093333 43.093333 0 0 0 43.008 43.050666H554.666667v70.4H359.082667a113.450667 113.450667 0 0 1-113.408-113.450666v-43.050667H163.541333a113.450667 113.450667 0 0 1-113.408-113.408V320a113.450667 113.450667 0 0 1 113.408-113.408h78.208V124.458667c0-43.178667 35.072-78.250667 78.250667-78.250667h391.082667zM320 206.592h391.082667V124.458667H320v82.133333z" p-id="1278"></path><path d="M787.712 316.458667a37.546667 37.546667 0 1 1 0.042667 75.050666 37.546667 37.546667 0 0 1-0.042667-75.050666z" p-id="1279"></path></svg>