<?xml version="1.0" standalone="no"?><!DOCTYPE svg PUBLIC "-//W3C//DTD SVG 1.1//EN" "http://www.w3.org/Graphics/SVG/1.1/DTD/svg11.dtd"><svg t="1782457555344" class="icon" viewBox="0 0 1024 1024" version="1.1" xmlns="http://www.w3.org/2000/svg" p-id="3032" xmlns:xlink="http://www.w3.org/1999/xlink" width="128" height="128"><path d="M351.345778 324.266667c-68.266667 0-125.155556-56.888889-125.155556-125.155556s56.888889-125.155556 125.155556-125.155555 125.155556 56.888889 125.155555 125.155555-62.577778 125.155556-125.155555 125.155556z m0-176.355556c-28.444444 0-51.2 22.755556-51.2 51.2s22.755556 51.2 51.2 51.2 51.2-22.755556 51.2-51.2-22.755556-51.2-51.2-51.2zM288.768 807.822222c-45.511111 0-91.022222-17.066667-125.155556-51.2s-51.2-79.644444-51.2-125.155555c0-96.711111 79.644444-182.044444 182.044445-182.044445h142.222222c17.066667 0 34.133333 17.066667 34.133333 34.133334s-17.066667 34.133333-34.133333 34.133333h-147.911111c-62.577778 0-108.088889 51.2-108.088889 108.088889 0 62.577778 51.2 108.088889 108.088889 108.088889h312.888889c17.066667 0 34.133333 17.066667 34.133333 34.133333s-17.066667 34.133333-34.133333 34.133333h-312.888889v5.688889z" fill="currentColor" p-id="3033"></path><path d="M749.568 523.377778s-5.688889 0 0 0h-312.888889c-17.066667 0-34.133333-17.066667-34.133333-34.133334s17.066667-34.133333 34.133333-34.133333h307.2c56.888889 0 108.088889-45.511111 108.088889-102.4V341.333333c0-56.888889-45.511111-108.088889-102.4-108.088889h-318.577778c-17.066667 0-34.133333-17.066667-34.133333-34.133333s17.066667-34.133333 34.133333-34.133333H749.568c96.711111 5.688889 170.666667 85.333333 170.666667 182.044444v5.688889c0 91.022222-73.955556 170.666667-170.666667 170.666667zM237.568 233.244444h-91.022222c-17.066667 0-34.133333-17.066667-34.133334-34.133333s17.066667-39.822222 34.133334-39.822222h91.022222c17.066667 0 34.133333 17.066667 34.133333 34.133333s-11.377778 39.822222-34.133333 39.822222zM891.790222 807.822222h-91.022222c-17.066667 0-34.133333-17.066667-34.133333-34.133333s17.066667-34.133333 34.133333-34.133333h91.022222c17.066667 0 34.133333 17.066667 34.133334 34.133333s-17.066667 34.133333-34.133334 34.133333z" fill="currentColor" p-id="3034"></path><path d="M698.368 904.533333c-68.266667 0-125.155556-56.888889-125.155556-125.155555 0-68.266667 56.888889-125.155556 125.155556-125.155556 68.266667 0 125.155556 56.888889 125.155556 125.155556-5.688889 68.266667-56.888889 125.155556-125.155556 125.155555z m0-176.355555c-28.444444 0-51.2 22.755556-51.2 51.2s22.755556 51.2 51.2 51.2 51.2-22.755556 51.2-51.2-22.755556-51.2-51.2-51.2z" fill="currentColor" p-id="3035"></path></svg>