<?xml version="1.0" standalone="no"?><!DOCTYPE svg PUBLIC "-//W3C//DTD SVG 1.1//EN" "http://www.w3.org/Graphics/SVG/1.1/DTD/svg11.dtd"><svg t="1782457654725" class="icon" viewBox="0 0 1024 1024" version="1.1" xmlns="http://www.w3.org/2000/svg" p-id="2731" xmlns:xlink="http://www.w3.org/1999/xlink" width="128" height="128"><path d="M473.315556 61.895111c-22.300444 14.563556-33.678222 33.223111-35.498667 60.984889-2.275556 30.947556 5.461333 48.696889 29.582222 66.901333 13.653333 10.467556 20.935111 12.743111 42.325333 12.743111 43.235556 0 72.817778-29.582222 72.817778-73.728 0-26.851556-11.832889-50.062222-31.857778-64.170666-18.204444-12.288-59.619556-13.653333-77.368888-2.730667zM478.776889 223.004444c-34.588444 4.096-61.895111 20.935111-76.913778 47.786667-8.192 15.018667-10.012444 26.396444-10.467555 68.266667-0.455111 27.306667-0.910222 52.792889-0.455112 55.523555 0.455111 4.551111 27.306667 5.916444 119.239112 5.916445h118.784l-1.820445-60.984889c-1.365333-60.074667-1.365333-61.44-15.473778-78.734222-25.486222-32.312889-70.542222-45.056-132.892444-37.774223zM204.8 317.667556c-18.204444 3.185778-35.043556 17.749333-42.780444 37.319111-9.557333 23.665778-9.102222 29.582222 1.820444 52.337777 10.922667 22.300444 29.127111 34.133333 53.248 34.133334 22.755556 0 37.319111-8.192 50.517333-27.306667 9.102222-13.198222 10.467556-20.024889 9.102223-40.049778-3.185778-39.139556-34.133333-63.260444-71.907556-56.433777zM788.252444 394.581333c-16.839111 3.185778-40.504889 30.492444-44.145777 50.517334-3.640889 21.845333 6.826667 49.607111 23.665777 61.895111 14.563556 10.922667 50.062222 14.108444 65.080889 6.371555 44.600889-23.665778 41.415111-96.028444-5.916444-115.143111-17.294222-6.826667-20.024889-7.281778-38.684445-3.640889zM407.779556 426.439111c-22.755556 0.910222-43.690667 4.096-46.876445 6.826667-8.192 6.826667-8.647111 522.467556-0.455111 530.659555 7.736889 7.736889 295.367111 7.736889 303.104 0 4.096-4.096 5.461333-69.176889 5.461333-265.329777 0-142.449778-1.820444-261.688889-3.640889-264.874667-3.640889-5.916444-174.307556-10.467556-257.592888-7.281778zM172.942222 460.117333c-14.563556 5.916444-35.498667 25.486222-43.690666 41.415111-4.096 7.736889-6.371556 26.851556-6.371556 53.703112v40.96h187.505778l-1.820445-46.876445c-1.365333-40.504889-2.730667-48.241778-12.288-61.895111-15.473778-21.845333-41.415111-32.312889-80.099555-31.857778-17.294222 0-36.864 2.275556-43.235556 4.551111zM757.76 539.306667c-36.864 17.294222-47.786667 38.229333-47.786667 91.477333 0 29.582222 1.820444 42.325333 5.916445 44.145778 3.185778 0.910222 44.600889 2.275556 92.387555 2.730666 100.124444 0.910222 92.842667 4.551111 92.842667-46.421333-0.455111-68.266667-31.402667-98.759111-98.759111-98.759111-16.839111 0.455111-36.864 3.185778-44.600889 6.826667zM87.381333 621.681778l-10.012444 6.826666v160.654223c0 121.059556 1.365333 162.019556 5.461333 167.936 5.461333 6.826667 19.569778 7.736889 122.88 8.192 64.170667 0 119.239111-0.910222 121.514667-2.730667 3.640889-1.820444 5.006222-59.164444 5.006222-175.672889V614.4H214.812444c-98.759111 0-118.784 0.910222-127.431111 7.281778zM691.768889 828.302222c0 126.976 0.455111 132.437333 8.647111 135.623111 5.006222 1.820444 59.164444 3.185778 120.604444 3.185778 106.040889 0 111.957333-0.455111 118.784-9.102222 10.012444-13.198222 8.192-250.766222-2.275555-257.137778-3.640889-2.730667-59.164444-4.551111-126.065778-4.551111H691.768889v131.982222z" p-id="2732"></path></svg>