<?xml version="1.0" standalone="no"?><!DOCTYPE svg PUBLIC "-//W3C//DTD SVG 1.1//EN" "http://www.w3.org/Graphics/SVG/1.1/DTD/svg11.dtd"><svg t="1782457535090" class="icon" viewBox="0 0 1024 1024" version="1.1" xmlns="http://www.w3.org/2000/svg" p-id="2203" xmlns:xlink="http://www.w3.org/1999/xlink" width="128" height="128"><path d="M95.744 340.252444c-17.066667 0-34.133333-17.066667-34.133333-34.133333v-210.488889c0-17.066667 17.066667-34.133333 34.133333-34.133333h210.488889c17.066667 0 34.133333 17.066667 34.133333 34.133333s-17.066667 34.133333-34.133333 34.133334h-170.666667v170.666666c-5.688889 22.755556-22.755556 39.822222-39.822222 39.822222zM306.232889 966.030222h-210.488889c-17.066667 0-34.133333-17.066667-34.133333-34.133333v-210.488889c0-17.066667 17.066667-34.133333 34.133333-34.133333s34.133333 17.066667 34.133333 34.133333v170.666667h170.666667c17.066667 0 34.133333 17.066667 34.133333 34.133333s-11.377778 39.822222-28.444444 39.822222zM926.321778 966.030222h-204.8c-17.066667 0-34.133333-17.066667-34.133334-34.133333s11.377778-39.822222 34.133334-39.822222h170.666666v-170.666667c0-17.066667 17.066667-34.133333 34.133334-34.133333s34.133333 17.066667 34.133333 34.133333v210.488889c5.688889 17.066667-11.377778 34.133333-34.133333 34.133333zM926.321778 340.252444c-17.066667 0-34.133333-17.066667-34.133334-34.133333v-170.666667h-170.666666c-17.066667 0-34.133333-17.066667-34.133334-34.133333s17.066667-34.133333 34.133334-34.133333h210.488889c17.066667 0 34.133333 17.066667 34.133333 34.133333v210.488889c0 11.377778-17.066667 28.444444-39.822222 28.444444zM835.299556 545.052444h-648.533334c-17.066667 0-34.133333-17.066667-34.133333-34.133333s17.066667-34.133333 34.133333-34.133333h648.533334c17.066667 0 34.133333 17.066667 34.133333 34.133333s-11.377778 34.133333-34.133333 34.133333z" fill="currentColor" p-id="2204"></path></svg>