<?xml version="1.0" standalone="no"?><!DOCTYPE svg PUBLIC "-//W3C//DTD SVG 1.1//EN" "http://www.w3.org/Graphics/SVG/1.1/DTD/svg11.dtd"><svg t="1782457645892" class="icon" viewBox="0 0 1024 1024" version="1.1" xmlns="http://www.w3.org/2000/svg" p-id="2568" xmlns:xlink="http://www.w3.org/1999/xlink" width="128" height="128"><path d="M122.152284 101.360406C97.721827 109.677157 74.850761 135.147208 67.573604 161.137056c-7.277157 25.470051-6.75736 568.138071 0.519797 593.608122 6.75736 24.950254 34.826396 52.499492 61.336041 60.296446 12.475127 4.158376 64.974619 6.237563 145.02335 6.237564h124.751269l2.079188 47.301523c1.039594 39.504569 3.118782 48.341117 11.435533 54.57868 14.034518 9.876142 21.831472 9.356345 34.306599-3.118782 9.876142-9.876142 10.395939-16.113706 9.356345-128.909645l-1.559391-117.993908-55.618274-1.559391c-69.132995-1.559391-76.929949-7.277157-49.900508-36.385787 146.062944-155.939086 162.17665-172.052792 167.894417-168.414213 16.113706 8.836548 174.13198 186.08731 173.092385 193.364467-1.559391 6.237563-12.475127 8.316751-60.296446 9.356345l-58.217259 1.559391-0.519797 32.227411c-2.598985 218.834518-2.598985 212.077157 7.796954 219.874112 14.034518 9.876142 21.831472 9.356345 34.306599-3.118782 8.836548-8.836548 10.395939-17.153299 10.395939-54.57868V821.279188h131.50863c116.434518 0 133.587817-1.559391 151.78071-9.876142 23.91066-10.915736 41.063959-28.069036 48.860914-48.860914 7.796954-20.272081 7.796954-589.969543 0-610.241624-7.796954-20.791878-24.950254-37.945178-48.860914-48.860914-19.752284-9.356345-42.103553-9.876142-392.4467-9.356345-306.160406 0-375.293401 1.039594-392.446701 7.277157z" p-id="2569"></path></svg>