<?xml version="1.0" standalone="no"?><!DOCTYPE svg PUBLIC "-//W3C//DTD SVG 1.1//EN" "http://www.w3.org/Graphics/SVG/1.1/DTD/svg11.dtd"><svg t="1782457597414" class="icon" viewBox="0 0 1024 1024" version="1.1" xmlns="http://www.w3.org/2000/svg" p-id="1742" xmlns:xlink="http://www.w3.org/1999/xlink" width="128" height="128"><path d="M489.300493 70.62069c-5.548768 5.548768-10.08867 15.637438-10.08867 22.195074 0 6.557635-1.5133 18.664039-3.026601 27.239408l-3.026601 15.637439-172.516256 1.5133c-171.002956 1.5133-172.011823 1.5133-188.658129 13.115271-34.805911 25.221675-33.797044 16.141872-33.797044 296.102463 0 244.650246 0.504433 252.721182 10.08867 269.871922 21.186207 35.310345 30.26601 37.328079 169.994089 40.354679l124.595074 2.522168L329.899507 832.315271c-29.761576 40.35468-55.487685 77.682759-58.514285 83.231527-11.097537 24.212808 17.150739 52.461084 44.894581 45.399015 11.097537-2.522167 43.381281-43.381281 129.134975-162.427586 14.628571-20.17734 27.239409-36.319212 28.75271-36.319212 1.5133-0.504433 2.017734 34.805911 1.008867 78.187192-2.017734 85.753695-0.504433 98.364532 14.124138 112.993103 13.115271 13.115271 30.26601 12.610837 46.912315-0.504433l13.619704-10.08867 1.008867-94.329064 1.513301-94.329064 11.097537 17.655172c6.557635 9.584236 39.345813 54.983251 73.64729 100.8867 68.098522 91.806897 79.196059 100.382266 103.408867 82.22266 9.584236-7.062069 14.124138-15.133005 15.133005-27.239409 1.008867-14.628571-6.557635-27.743842-54.478817-92.815764l-54.983252-75.665024 124.595074-2.522168c81.213793-1.5133 128.126108-4.539901 134.683744-8.575369 5.548768-3.026601 17.150739-12.610837 25.221675-21.690641l15.133005-15.637438 1.5133-258.269951c1.5133-293.580296 3.026601-282.482759-39.345812-304.677832-21.186207-11.60197-24.717241-11.60197-190.171429-11.601971H549.832512v-27.743842c0-32.788177-11.097537-47.921182-35.310345-47.921182-8.575369 0-19.672906 4.539901-25.221674 10.08867z m383.369458 375.802955V680.985222H151.330049V211.862069h721.339902v234.561576z" fill="#010000" p-id="1743"></path><path d="M727.393103 423.724138c-16.646305 7.062069-147.294581 141.745813-150.825615 155.869951-6.557635 25.726108 22.195074 52.965517 49.434482 47.416748 8.070936-1.5133 39.850246-29.257143 84.744828-74.151724 65.576355-65.576355 72.13399-73.647291 72.638424-90.798029 1.008867-29.761576-28.248276-49.434483-55.992119-38.336946z" fill="#010000" p-id="1744"></path></svg>